<svg width="493" height="493" viewBox="0 0 493 493" fill="none" xmlns="http://www.w3.org/2000/svg">
<g clip-path="url(#clip0_66_261)">
<rect width="850" height="493" transform="translate(-357)" fill="white"/>
<path d="M299.04 263.62L294.5 263.302L290.167 262.561L286.007 261.405L282.021 259.85L278.174 257.881L274.597 255.599L271.261 252.999L268.155 250.058L265.344 246.832L262.85 243.38L260.688 239.678L258.839 235.701L257.376 231.594L256.312 227.31L255.657 222.861L255.426 218.191L255.657 213.535L256.312 209.072L257.376 204.802L258.839 200.69L260.688 196.714L262.85 193.011L265.344 189.55L268.155 186.324L271.261 183.392L274.597 180.783L278.174 178.51L282.021 176.546L286.007 174.991L290.167 173.831L294.5 173.094L299.04 172.776L304.606 173.137L310.012 174.216L315.299 176.012L315.178 172.776L315.409 167.962L316.151 163.325L317.427 158.829L319.198 154.515L321.427 150.48L324.119 146.711L327.224 143.268L330.714 140.226L334.624 137.544L338.827 135.378L343.136 133.765L347.579 132.686L352.11 132.152H356.631L361.175 132.686L365.61 133.765L369.919 135.378L374.122 137.544L378.031 140.226L381.521 143.268L384.627 146.711L387.318 150.48L389.547 154.515L391.319 158.829L392.595 163.325L393.346 167.962L393.567 172.776L393.245 178.034L392.282 183.132L390.674 188.139L393.803 186.382L397.024 184.938L400.37 183.801L403.817 182.997L407.308 182.497L410.865 182.338L416.262 182.781L421.351 183.883L426.161 185.655L430.725 188.052L434.87 190.946L438.635 194.388L441.952 198.293L444.745 202.563L447.027 207.267L448.697 212.216L449.728 217.44L450.094 222.972L449.728 228.513L448.697 233.737L447.027 238.691L444.745 243.39L441.952 247.66L438.635 251.57L434.87 255.012L430.725 257.905L426.161 260.303L421.351 262.075L416.262 263.177L410.865 263.62H299.04Z" fill="url(#paint0_linear_66_261)"/>
<path d="M43.5853 375.084L43.1134 372.908L41.8954 366.943L40.2344 358.036L38.4482 347.04L37.6009 341.07L36.8258 334.797L36.1758 328.471L35.6847 322.159L35.3814 315.896L35.3188 309.969L35.4248 306.05L35.6703 302.425L36.0362 299.079L36.5947 295.757L37.3072 292.858L38.1497 290.34L38.9682 288.501L39.8781 286.951L40.8747 285.656L41.958 284.592L43.5179 283.432L45.0152 282.541L46.4595 281.891L47.8701 281.467L49.8296 281.159L51.7361 281.154L53.6041 281.448L55.4384 281.992L57.2246 282.748L58.9771 283.716L61.4613 285.439L63.7915 287.428L65.9532 289.594L67.8646 291.766L69.6074 293.961L71.0036 295.891L73.0256 298.973L73.743 300.186L73.2038 298.217L71.8413 292.844L70.0503 284.871L69.1163 280.24L68.1919 275.093L67.3687 269.807L66.6609 264.309L66.141 258.772L65.8377 253.322L65.7895 249.692L65.881 246.23L66.1073 242.933L66.5165 239.649L67.1039 236.659L67.8501 233.934L68.5819 231.931L69.4293 230.145L70.3825 228.552L71.4417 227.136L72.6694 225.87L74.0415 224.821L75.5677 223.973L77.272 223.333L79.0582 222.972L80.7769 222.875L82.462 223.044L84.1181 223.468L85.7117 224.108L87.2909 224.96L88.8748 226.034L90.4588 227.353L92.399 229.284L94.3248 231.522L96.2506 234.108L98.0127 236.804L99.7459 239.712L101.431 242.841L103.771 247.655L105.952 252.667L107.969 257.742L109.774 262.696L111.426 267.587L112.832 272.041L115.08 279.811L116.466 285.126L116.943 287.095L116.726 285.131L116.346 279.908L116.221 276.504L116.206 272.45L116.346 268.247L116.707 263.769L117.088 260.77L117.607 257.809L118.267 254.882L119.1 252.013L120.101 249.326L121.281 246.808L122.321 245.008L123.481 243.371L124.757 241.893L126.158 240.564L127.689 239.413L129.384 238.465L131.247 237.714L133.307 237.16L134.973 237.011L136.639 237.165L138.334 237.632L140.086 238.441L141.699 239.447L143.365 240.718L145.074 242.283L146.841 244.17L148.988 246.794L151.179 249.817L153.413 253.274L155.492 256.813L157.567 260.606L159.633 264.67L162.55 270.871L165.338 277.279L167.971 283.745L170.374 290.023L172.627 296.204L174.577 301.813L177.779 311.572L179.815 318.221L180.537 320.676L43.5853 375.084Z" fill="url(#paint1_linear_66_261)"/>
<path d="M493 392.281L492.88 394.862L492.519 397.438L491.931 400.018L491.079 402.632L489.962 405.285L488.551 407.981L486.746 410.86L484.58 413.788L482.023 416.773L479.024 419.82L475.543 422.94L472.163 425.646L468.398 428.38L464.214 431.139L459.583 433.922L454.475 436.728L448.283 439.815L441.476 442.881L434.004 445.919L425.834 448.928L417.196 451.798L408.025 454.532L398.295 457.137L388.55 459.477L378.349 461.658L367.699 463.675L357.035 465.456L346.024 467.055L334.657 468.461L323.281 469.64L311.654 470.617L299.782 471.397L287.9 471.951L275.873 472.283L263.692 472.394L251.517 472.283L239.485 471.951L227.608 471.397L215.726 470.617L204.104 469.64L192.732 468.461L181.36 467.055L170.35 465.456L159.686 463.675L149.031 461.658L138.839 459.477L129.085 457.137L119.36 454.532L110.188 451.798L101.551 448.928L93.3811 445.919L85.9139 442.881L79.1063 439.815L72.9149 436.728L67.802 433.922L63.1705 431.139L58.9867 428.38L55.2218 425.646L51.8469 422.94L48.366 419.82L45.3666 416.773L42.8053 413.788L40.6388 410.86L38.8382 407.981L37.4228 405.285L36.3106 402.632L35.4585 400.018L34.8663 397.438L34.51 394.862L34.3896 392.281L34.51 389.701L34.8663 387.125L35.4585 384.545L36.3106 381.93L37.4228 379.278L38.8382 376.581L40.6388 373.702L42.8053 370.775L45.3666 367.79L48.366 364.743L51.8469 361.623L55.2218 358.917L58.9867 356.183L63.1705 353.424L67.802 350.641L72.9149 347.834L79.1063 344.748L85.9139 341.682L93.3811 338.644L101.551 335.635L110.188 332.765L119.36 330.031L129.085 327.426L138.839 325.086L149.031 322.905L159.686 320.888L170.35 319.107L181.36 317.508L192.732 316.102L204.104 314.923L215.726 313.945L227.608 313.166L239.485 312.612L251.517 312.28L263.692 312.169L275.873 312.28L287.9 312.612L299.782 313.166L311.654 313.945L323.281 314.923L334.657 316.102L346.024 317.508L357.035 319.107L367.699 320.888L378.349 322.905L388.55 325.086L398.295 327.426L408.025 330.031L417.201 332.765L425.834 335.635L434.004 338.644L441.476 341.682L448.283 344.748L454.475 347.834L459.583 350.641L464.214 353.424L468.398 356.183L472.163 358.917L475.543 361.623L479.024 364.743L482.023 367.79L484.58 370.775L486.746 373.702L488.551 376.581L489.962 379.278L491.079 381.93L491.931 384.545L492.519 387.125L492.88 389.701L493 392.281Z" fill="url(#paint2_linear_66_261)"/>
<path d="M244.165 176.83V238.946L347.358 236.086V189.444L244.165 176.83Z" fill="#E6EDED"/>
<path d="M244.165 176.83V238.946L161.294 236.086V195.164L244.165 176.83Z" fill="#E1E9E9"/>
<path d="M256.1 208.422V343.502L347.358 325.178V189.858L256.1 208.422Z" fill="url(#paint3_linear_66_261)"/>
<path d="M256.095 343.502L161.294 326.545V194.798L256.095 208.124V343.502Z" fill="url(#paint4_linear_66_261)"/>
<path d="M161.294 194.798L134.588 220.979L227.704 237.877L256.504 208.129L161.294 194.798Z" fill="url(#paint5_linear_66_261)"/>
<path d="M283.268 236.086L374.762 216.097L347.589 189.921L255.633 208.004L283.268 236.086Z" fill="url(#paint6_linear_66_261)"/>
<path d="M60.6381 340.521L61.8272 340.911L64.9855 341.739L67.0413 342.134L69.487 342.466L72.0194 342.63L74.7203 342.568L76.5161 342.375L78.2927 342.028L80.0548 341.518L81.7494 340.83L83.3575 339.92L84.8885 338.788L86.2461 337.455L87.4835 335.818L88.5908 333.844L89.2407 332.298L89.7896 330.522L90.2325 328.49L90.5454 326.16L91.465 322.934L92.4135 320.373L93.3763 318.38L94.5414 316.483L95.6488 315.053L96.6887 314.008L97.8634 313.098L98.913 312.472L99.8422 312.082L101.243 311.717L102.201 311.635L103.13 311.697L102.095 311.596L101.022 311.625L99.4714 311.871L98.4123 312.164L97.2472 312.655L95.9569 313.373L94.7725 314.235L93.54 315.414L92.269 316.964L91.1906 318.649L90.1314 320.801L89.1156 323.512L86.4917 323.021L84.1133 322.746L81.9516 322.66L79.9873 322.751L77.3538 323.122L75.0285 323.719L72.992 324.518L71.0421 325.544L69.333 326.685L67.8453 327.932L66.4684 329.323L65.2936 330.719L64.297 332.12L63.0116 334.292L62.092 336.203L61.3699 338.023L60.9606 339.294L60.6381 340.521Z" fill="#CDF5DF"/>
<path d="M341.874 378.82L343.015 379.08L345.967 379.518L347.854 379.644L350.016 379.624L352.206 379.393L354.426 378.883L355.855 378.363L357.208 377.665L358.489 376.779L359.62 375.72L360.622 374.405L361.484 372.807L361.96 371.55L362.331 370.092L362.581 368.402L362.692 366.447L363.164 364.045L363.693 362.124L364.266 360.612L364.993 359.163L365.706 358.051L366.399 357.223L367.564 356.202L368.57 355.619L369.567 355.268L370.255 355.143L370.934 355.128L370.178 355.124L369.399 355.215L368.282 355.494L367.136 355.971L365.826 356.813L365.017 357.516L364.199 358.455L363.376 359.659L362.692 360.954L362.056 362.586L361.488 364.618L359.23 364.42L357.223 364.406L355.451 364.555L353.882 364.849L351.792 365.484L350.025 366.288L348.518 367.246L347.136 368.392L345.981 369.586L345.028 370.828L343.834 372.807L343.015 374.612L342.413 376.36L342.091 377.602L341.874 378.82Z" fill="#CDF5DF"/>
<path d="M84.8114 132.951L83.0782 132.826L81.4558 132.479L79.9151 131.916L78.4564 131.15L77.1276 130.216L75.9191 129.099L74.8551 127.838L73.9597 126.452L73.223 124.925L72.6886 123.317L72.3564 121.618L72.2361 119.812L72.3564 118.007L72.6886 116.307L73.223 114.695L73.9597 113.168L74.8551 111.782L75.9191 110.52L77.1276 109.408L78.4564 108.47L79.9151 107.704L81.4558 107.141L83.0782 106.799L84.8114 106.674L86.405 106.775L87.9553 107.088L89.4718 107.608L89.4381 106.674L89.4911 105.282L89.7029 103.944L90.064 102.649L90.5695 101.407L91.2098 100.242L91.9802 99.1488L92.866 98.157L93.8722 97.2759L94.9988 96.5008L96.2072 95.8749L97.4446 95.4079L98.73 95.095L100.035 94.9409H101.335L102.644 95.095L103.925 95.4079L105.167 95.8749L106.371 96.5008L107.497 97.2759L108.499 98.157L109.394 99.1488L110.164 100.242L110.8 101.407L111.305 102.649L111.666 103.944L111.878 105.282L111.936 106.674L111.84 108.19L111.565 109.668L111.103 111.117L112.456 110.39L113.886 109.866L115.369 109.543L116.895 109.437L118.445 109.582L119.904 109.909L121.281 110.429L122.59 111.127L123.78 111.97L124.858 112.966L125.807 114.088L126.606 115.325L127.26 116.673L127.737 118.098L128.031 119.601L128.137 121.194L128.031 122.788L127.737 124.29L127.26 125.715L126.606 127.063L125.807 128.3L124.858 129.422L123.78 130.419L122.59 131.261L121.281 131.959L119.904 132.479L118.445 132.807L116.895 132.951H84.8114Z" fill="url(#paint7_linear_66_261)"/>
<path d="M315.217 83.367L313.816 82.8471L310.089 81.7301L307.653 81.1668L304.76 80.6709L301.741 80.3724L298.535 80.3291L296.382 80.4783L294.254 80.8202L292.136 81.3498L290.09 82.1008L288.14 83.1119L286.272 84.3973L285.006 85.5095L283.817 86.8238L282.705 88.3548L281.665 90.1265L280.832 91.9367L280.105 94.0262L279.498 96.4334L279.026 99.1921L278.025 102.374L277.014 104.998L276.003 107.131L274.814 109.187L273.682 110.824L272.594 112.1L271.376 113.265L270.254 114.141L269.219 114.777L267.611 115.489L266.292 115.841L265.06 115.99L264.232 115.985L263.456 115.879L264.323 116.014L265.243 116.067L266.61 116.009L268.083 115.778L269.855 115.258L271.02 114.762L272.262 114.069L273.581 113.144L274.799 112.095L276.046 110.752L277.327 109.067L278.439 107.276L279.542 105.08L280.62 102.408L283.725 103.101L286.547 103.535L289.117 103.727L291.452 103.703L293.855 103.482L296.045 103.101L298.043 102.572L299.863 101.898L302.222 100.757L304.302 99.4714L306.127 98.0463L307.817 96.4527L309.276 94.8399L310.518 93.2126L312.135 90.6802L313.31 88.4463L314.244 86.3038L314.783 84.8114L315.217 83.367Z" fill="#98E1B9"/>
<path d="M192.877 169.758L196.131 170.677L199.217 171.351L202.135 171.799L204.903 172.025L207.744 172.068L210.382 171.929L212.833 171.616L215.11 171.144L217.397 170.485L219.452 169.7L221.296 168.804L222.948 167.803L224.522 166.619L225.846 165.367L226.948 164.057L227.849 162.68L228.557 161.183L229.024 159.657L229.259 158.092L229.255 156.46L229.014 154.871L228.513 153.249L227.724 151.578L226.616 149.835L225.432 148.482L224.373 147.645L223.41 147.192L222.37 147.014L221.421 147.11L220.531 147.486L219.727 148.073L219.014 148.844L218.379 149.835L217.897 150.919L217.555 152.089L217.358 153.374L217.339 154.664L217.507 155.945L217.873 157.221L218.441 158.41L219.245 159.503L220.319 160.509L221.219 161.111L222.298 161.626L223.583 162.05L225.1 162.358L226.573 162.493L228.292 162.483L230.295 162.29L232.62 161.896L235.581 161.149L239.105 159.965L243.279 158.251L250.799 152.945L254.319 150.346L257.665 147.63L259.793 145.714L261.892 143.601L263.962 141.275L265.883 138.834L267.818 136.032L269.768 132.831L271.53 129.538L273.331 125.696L275.17 121.252" stroke="#E2E0E0" stroke-linecap="round" stroke-dasharray="2 2"/>
</g>
<defs>
<linearGradient id="paint0_linear_66_261" x1="352.76" y1="132.152" x2="352.76" y2="263.62" gradientUnits="userSpaceOnUse">
<stop stop-color="#CEF4DB" stop-opacity="0.620342"/>
<stop offset="1" stop-color="white"/>
</linearGradient>
<linearGradient id="paint1_linear_66_261" x1="107.928" y1="222.875" x2="108.839" y2="339.467" gradientUnits="userSpaceOnUse">
<stop stop-color="#E0F3E9"/>
<stop offset="1" stop-color="#FEFEFE"/>
</linearGradient>
<linearGradient id="paint2_linear_66_261" x1="263.695" y1="312.169" x2="263.695" y2="414.496" gradientUnits="userSpaceOnUse">
<stop stop-color="#F6F9F7"/>
<stop offset="1" stop-color="white"/>
</linearGradient>
<linearGradient id="paint3_linear_66_261" x1="318.585" y1="260.995" x2="253.976" y2="268.9" gradientUnits="userSpaceOnUse">
<stop stop-color="#EFEFEF"/>
<stop offset="1" stop-color="#EBEBEB"/>
</linearGradient>
<linearGradient id="paint4_linear_66_261" x1="253.826" y1="264.837" x2="154.612" y2="263.81" gradientUnits="userSpaceOnUse">
<stop stop-color="#F0F0F0"/>
<stop offset="1" stop-color="#E8ECEB"/>
</linearGradient>
<linearGradient id="paint5_linear_66_261" x1="223.709" y1="235.853" x2="223.709" y2="204.146" gradientUnits="userSpaceOnUse">
<stop stop-color="#F8F8F8"/>
<stop offset="1" stop-color="#F4F4F4"/>
</linearGradient>
<linearGradient id="paint6_linear_66_261" x1="291.967" y1="234.192" x2="292.325" y2="195.723" gradientUnits="userSpaceOnUse">
<stop stop-color="#F8F8F8"/>
<stop offset="1" stop-color="#F4F4F4"/>
</linearGradient>
<linearGradient id="paint7_linear_66_261" x1="100.186" y1="94.9409" x2="100.186" y2="132.951" gradientUnits="userSpaceOnUse">
<stop stop-color="#C2F5D3" stop-opacity="0.620342"/>
<stop offset="1" stop-color="white"/>
</linearGradient>
<clipPath id="clip0_66_261">
<rect width="850" height="493" fill="white" transform="translate(-357)"/>
</clipPath>
</defs>
</svg>
